HIERARCHY
ROOT Hips
{
	OFFSET 0.000000 0.000000 0.000000 
	CHANNELS 6 Xposition Yposition Zposition Zrotation Yrotation Xrotation
	JOINT LeftUpLeg
	{
		OFFSET 1.363060 -1.794630 0.839290 
		CHANNELS 3 Zrotation Yrotation Xrotation
		JOINT LeftLeg
		{
			OFFSET 2.448110 -6.726130 0.000000 
			CHANNELS 3 Zrotation Yrotation Xrotation
			JOINT LeftFoot
			{
				OFFSET 2.562200 -7.039590 0.000000 
				CHANNELS 3 Zrotation Yrotation Xrotation
				JOINT LeftToeBase
				{
					OFFSET 0.157640 -0.433110 2.322550 
					CHANNELS 3 Zrotation Yrotation Xrotation
					End Site
					{
						OFFSET 0.000000 0.000000 0.000000 
					}
				}
			}
		}
	}
	JOINT RightUpLeg
	{
		OFFSET -1.305520 -1.794630 0.839290 
		CHANNELS 3 Zrotation Yrotation Xrotation
		JOINT RightLeg
		{
			OFFSET -2.542530 -6.985550 0.000000 
			CHANNELS 3 Zrotation Yrotation Xrotation
			JOINT RightFoot
			{
				OFFSET -2.568260 -7.056230 0.000000 
				CHANNELS 3 Zrotation Yrotation Xrotation
				JOINT RightToeBase
				{
					OFFSET -0.164730 -0.452590 2.363150 
					CHANNELS 3 Zrotation Yrotation Xrotation
					End Site
					{
						OFFSET 0.000000 0.000000 0.000000 
					}
				}
			}
		}
	}
	JOINT Spine
	{
		OFFSET 0.028270 2.035590 -0.193380 
		CHANNELS 3 Zrotation Yrotation Xrotation
		JOINT Spine1
		{
			OFFSET 0.056720 2.048850 -0.042750 
			CHANNELS 3 Zrotation Yrotation Xrotation
			JOINT Neck1
			{
				OFFSET -0.054170 1.746240 0.172020 
				CHANNELS 3 Zrotation Yrotation Xrotation
				JOINT Head
				{
					OFFSET 0.104070 1.761360 -0.123970 
					CHANNELS 3 Zrotation Yrotation Xrotation
					End Site
					{
						OFFSET 0.000000 0.000000 0.000000 
					}
				}
			}
			JOINT LeftArm
			{
				OFFSET 3.362410 1.200890 -0.311210 
				CHANNELS 3 Zrotation Yrotation Xrotation
				JOINT LeftForeArm
				{
					OFFSET 4.983000 -0.000000 -0.000000 
					CHANNELS 3 Zrotation Yrotation Xrotation
					JOINT LeftHand
					{
						OFFSET 3.483560 -0.000000 -0.000000 
						CHANNELS 3 Zrotation Yrotation Xrotation
						JOINT LeftHandIndex1
						{
							OFFSET 0.715260 -0.000000 -0.000000 
							CHANNELS 3 Zrotation Yrotation Xrotation
							End Site
							{
								OFFSET 0.000000 0.000000 0.000000 
							}
						}
					}
				}
			}
			JOINT RightArm
			{
				OFFSET -3.136600 1.374050 -0.404650 
				CHANNELS 3 Zrotation Yrotation Xrotation
				JOINT RightForeArm
				{
					OFFSET -5.241900 -0.000000 -0.000000 
					CHANNELS 3 Zrotation Yrotation Xrotation
					JOINT RightHand
					{
						OFFSET -3.444170 -0.000000 -0.000000 
						CHANNELS 3 Zrotation Yrotation Xrotation
						JOINT RightHandIndex1
						{
							OFFSET -0.622530 -0.000000 -0.000000 
							CHANNELS 3 Zrotation Yrotation Xrotation
							End Site
							{
								OFFSET 0.000000 0.000000 0.000000 
							}
						}
					}
				}
			}
		}
	}
}
MOTION
Frames: 11
Frame Time: 0.041667
-2.802600 10.939900 1.201800 -162.554000 -29.126600 -148.727000 -10.430900 17.271800 -87.839900 32.582500 15.673600 129.563700 0.679300 -19.482000 -18.912400 0.226900 -3.065800 -8.462100 8.799600 -25.603600 -79.747000 -24.939500 -19.404700 104.581000 0.681200 21.028600 -8.684400 -1.927300 8.713000 -24.901500 -0.728300 -0.401300 13.969000 -0.661600 -1.978400 -5.661900 16.390300 -9.694300 20.187800 4.289600 -1.909600 14.043800 21.791700 -52.693900 -86.860500 7.721300 -13.100200 -0.887900 0.000000 0.000000 14.423700 -7.125000 0.000000 0.000000 114.376500 76.632100 86.940700 -24.866600 36.067400 -8.211300 0.000000 0.000000 -22.199800 7.125000 0.000000 0.000000 
-2.587100 10.895500 1.217600 -163.655000 -29.876700 -148.420000 -9.994500 16.856500 -88.143500 32.669900 15.603700 129.888000 0.666400 -20.386400 -19.277000 0.396000 -4.040500 -11.190600 7.887600 -26.166000 -80.348300 -25.538800 -19.248000 106.391900 0.848100 22.074800 -8.150300 -1.673200 8.149400 -23.168800 -1.091800 -1.020300 14.088900 -0.858200 -2.192400 -5.518000 17.003900 -10.121400 20.249500 4.468300 -2.020500 14.214400 23.350500 -51.908100 -91.151300 6.993800 -11.909100 -0.730400 0.000000 0.000000 19.916500 -7.125000 0.000000 0.000000 118.499800 76.444900 90.772600 -24.301000 35.480900 -7.880600 0.000000 0.000000 -22.282000 7.125000 0.000000 0.000000 
-2.355400 10.805200 1.255600 -165.253000 -30.492600 -146.898000 -10.366300 16.078800 -90.090300 32.843400 15.462400 130.535800 0.707000 -20.910900 -19.816300 0.562900 -4.805600 -13.354900 6.846800 -26.794800 -82.734600 -26.287500 -19.024500 108.675600 0.987100 22.772800 -7.556000 -1.525000 7.797400 -22.100400 -0.486800 -0.896600 14.103900 0.121900 -2.130100 -5.378800 16.633200 -10.366700 20.186100 4.270000 -2.179900 14.127100 24.385800 -52.267800 -98.977400 6.115500 -10.454600 -0.560000 0.000000 0.000000 28.918500 -7.125000 0.000000 0.000000 116.895000 76.377700 89.788000 -23.963700 35.125900 -7.685700 0.000000 0.000000 -22.557700 7.125000 0.000000 0.000000 
-2.115900 10.716900 1.289100 -166.216000 -30.988200 -145.879000 -10.125000 16.333100 -92.014200 33.052400 15.287600 131.324200 0.727200 -21.722600 -20.363700 1.519900 -7.784800 -22.062400 6.274400 -26.801000 -84.684700 -27.020800 -18.774600 110.939100 1.003300 23.356200 -8.133900 -1.660400 8.119700 -23.078200 -0.893000 -1.179900 14.076600 -0.174600 -2.156800 -5.300500 16.827900 -10.952800 20.480200 4.190400 -2.377900 14.280600 25.637100 -51.926700 -103.690100 5.569100 -9.541600 -0.465200 0.000000 0.000000 35.390400 -7.125000 0.000000 0.000000 117.841900 75.711100 90.282000 -23.972600 35.135200 -7.690800 0.000000 0.000000 -22.821400 7.125000 0.000000 0.000000 
-1.880900 10.622600 1.326600 -167.092000 -31.491800 -144.758000 -9.662900 16.205500 -94.088200 33.285500 15.086600 132.214100 0.732000 -22.294100 -20.691700 2.409400 -9.671200 -27.918400 5.981900 -26.842700 -86.905300 -27.730700 -18.502200 113.160000 0.907500 23.728900 -9.513300 -2.046200 8.961600 -25.675400 -0.758500 -1.132600 14.129100 0.095700 -2.087400 -5.055300 16.249300 -11.808700 21.747400 3.817200 -2.687000 14.892700 26.644100 -51.927100 -110.177400 5.064400 -8.693000 -0.385200 0.000000 0.000000 43.339200 -7.125000 0.000000 0.000000 118.455200 75.506800 91.017500 -23.701800 34.847300 -7.535500 0.000000 0.000000 -23.007000 7.125000 0.000000 0.000000 
-1.646400 10.510300 1.372000 -168.373000 -31.664600 -143.165000 -9.918100 15.825500 -96.624500 33.538400 14.861200 133.192800 0.667200 -22.174700 -20.217400 2.583800 -9.988700 -28.940200 5.435400 -27.209300 -89.920600 -28.462900 -18.188100 115.486000 0.790800 23.914800 -10.772600 -2.441300 9.730400 -28.108000 -0.655800 -1.099900 14.303400 0.527500 -2.037000 -4.568200 16.645800 -12.121600 21.208400 3.863200 -2.808400 14.718300 28.051600 -52.001700 -112.713400 4.539000 -7.805000 -0.309800 0.000000 0.000000 47.171700 -7.125000 0.000000 0.000000 118.555100 75.454700 91.187100 -23.368500 34.489300 -7.345900 0.000000 0.000000 -22.913000 7.125000 0.000000 0.000000 
-1.414800 10.406400 1.408600 -169.305000 -31.741600 -142.409000 -10.571600 16.585000 -98.816500 33.794900 14.624200 134.200600 1.405600 -18.531900 -23.271200 2.827600 -10.410700 -30.317100 5.061900 -27.495600 -92.169900 -29.156800 -17.857500 117.728600 0.632000 24.115100 -12.315300 -2.901900 10.534500 -30.725600 -0.966000 -1.208300 15.393100 0.477200 -2.051700 -4.160900 16.972500 -12.037400 20.573000 4.048700 -2.827100 14.430900 28.672800 -51.878600 -114.268000 4.687800 -8.057000 -0.330300 0.000000 0.000000 50.394800 -7.125000 0.000000 0.000000 119.845700 75.402400 92.186900 -23.104800 34.203200 -7.197100 0.000000 0.000000 -22.861900 7.125000 0.000000 0.000000 
-1.186300 10.292500 1.451800 -169.843000 -32.163900 -141.776000 -11.328300 17.333100 -101.544700 34.072800 14.357400 135.311300 1.942900 -14.817700 -25.583600 3.012900 -10.715900 -31.327600 4.462700 -27.829200 -93.752400 -29.765000 -17.539900 119.729000 1.233200 26.296400 -9.642800 -2.132100 9.136000 -26.221800 -0.475700 -0.943700 15.319600 1.096600 -1.929900 -3.892100 16.678000 -12.257300 20.578200 3.931900 -2.974800 14.411500 28.460500 -52.077500 -115.858800 4.967700 -8.530000 -0.370700 0.000000 0.000000 53.216500 -7.125000 0.000000 0.000000 121.394200 75.092600 93.428300 -22.464500 33.498000 -6.840400 0.000000 0.000000 -22.018200 7.125000 0.000000 0.000000 
-0.963000 10.169000 1.506900 -170.718000 -32.518600 -140.824000 -12.137500 17.413900 -104.296100 34.344800 14.085700 136.418400 2.125600 -13.221500 -26.439000 3.173100 -10.970200 -32.179400 3.859600 -28.587100 -95.916800 -30.382400 -17.189200 121.797400 1.720800 27.750900 -7.245700 -1.621000 8.027400 -22.797400 -0.461800 -1.000500 15.437200 1.205700 -1.928500 -3.281000 16.772600 -12.455600 20.382600 3.953500 -3.084000 14.338000 28.757400 -51.891300 -117.522400 5.230800 -8.973300 -0.410700 0.000000 0.000000 56.120900 -7.125000 0.000000 0.000000 121.695900 75.029200 93.853100 -22.470600 33.504800 -6.843800 0.000000 0.000000 -22.090000 7.125000 0.000000 0.000000 
-0.751100 10.061500 1.556900 -171.742000 -32.687900 -140.266000 -12.850100 17.806800 -106.358700 34.600100 13.820500 137.477000 1.984000 -13.552600 -25.625700 3.205600 -11.020600 -32.349400 3.217400 -29.642400 -97.648700 -30.942400 -16.844600 123.711000 1.983300 28.627800 -6.148600 -1.452800 7.618800 -21.562200 -0.464300 -1.051900 15.516300 1.388400 -1.948600 -2.855900 16.797300 -12.651300 20.202800 3.943500 -3.198000 14.257400 28.987800 -51.678300 -112.649800 5.355100 -9.182300 -0.430300 0.000000 0.000000 52.335600 -7.125000 0.000000 0.000000 121.991500 75.106200 94.283100 -22.397500 33.423400 -6.803500 0.000000 0.000000 -22.392000 7.125000 0.000000 0.000000 
-0.545400 9.941200 1.608100 -172.669000 -33.027300 -139.835000 -13.682000 18.215900 -108.286100 34.839000 13.562800 138.486400 1.945200 -13.235000 -25.341500 3.415500 -11.339100 -33.432200 3.034100 -31.015700 -99.493500 -31.488600 -16.482800 125.615500 2.130300 29.276200 -5.832400 -1.433100 7.569100 -21.412700 -0.370300 -1.087700 15.581600 1.562500 -1.958700 -2.449100 16.687800 -12.841400 20.066800 3.878700 -3.320500 14.171200 29.132400 -51.527200 -105.606800 5.495600 -9.418300 -0.453000 0.000000 0.000000 45.535800 -7.125000 0.000000 0.000000 122.265200 75.204100 94.614600 -22.284300 33.296800 -6.741200 0.000000 0.000000 -22.734200 7.125000 0.000000 0.000000 
